<svg width="24" height="24" viewBox="0 0 24 24" fill="none" xmlns="http://www.w3.org/2000/svg">
<g id="Iconly/Light/Buy">
<g id="Buy">
<path id="Stroke 1" d="M2.75012 3.24988L4.83012 3.60988L5.79312 15.0829C5.87012 16.0199 6.65312 16.7389 7.59312 16.7359H18.5021C19.3991 16.7379 20.1601 16.0779 20.2871 15.1899L21.2361 8.63188C21.3421 7.89888 20.8331 7.21888 20.1011 7.11288C20.0371 7.10388 5.16412 7.09888 5.16412 7.09888" stroke="#1A162E" stroke-width="1.5" stroke-linecap="round" stroke-linejoin="round"/>
<path id="Stroke 3" d="M14.1251 10.7948H16.8981" stroke="#1A162E" stroke-width="1.5" stroke-linecap="round" stroke-linejoin="round"/>
<path id="Stroke 5" fill-rule="evenodd" clip-rule="evenodd" d="M7.15447 20.202C7.45547 20.202 7.69847 20.446 7.69847 20.746C7.69847 21.047 7.45547 21.291 7.15447 21.291C6.85347 21.291 6.61047 21.047 6.61047 20.746C6.61047 20.446 6.85347 20.202 7.15447 20.202Z" fill="#1A162E" stroke="#1A162E" stroke-width="1.5" stroke-linecap="round" stroke-linejoin="round"/>
<path id="Stroke 7" fill-rule="evenodd" clip-rule="evenodd" d="M18.4347 20.202C18.7357 20.202 18.9797 20.446 18.9797 20.746C18.9797 21.047 18.7357 21.291 18.4347 21.291C18.1337 21.291 17.8907 21.047 17.8907 20.746C17.8907 20.446 18.1337 20.202 18.4347 20.202Z" fill="#1A162E" stroke="#1A162E" stroke-width="1.5" stroke-linecap="round" stroke-linejoin="round"/>
</g>
</g>
</svg>
