<svg width="46" height="46" viewBox="0 0 46 46" fill="none" xmlns="http://www.w3.org/2000/svg">
<path d="M37.7369 23V41.421H8.26318V23" stroke="#7644E1" stroke-width="4" stroke-linecap="round" stroke-linejoin="round"/>
<path d="M41.4212 13.7895H4.5791V23H41.4212V13.7895Z" stroke="#7644E1" stroke-width="4" stroke-linecap="round" stroke-linejoin="round"/>
<path d="M23 41.421V13.7895" stroke="#7644E1" stroke-width="4" stroke-linecap="round" stroke-linejoin="round"/>
<path d="M23 13.7895H14.7105C13.4891 13.7895 12.3177 13.3043 11.4541 12.4406C10.5904 11.577 10.1052 10.4056 10.1052 9.1842C10.1052 7.96281 10.5904 6.79144 11.4541 5.92778C12.3177 5.06413 13.4891 4.57893 14.7105 4.57893C21.1579 4.57893 23 13.7895 23 13.7895Z" stroke="#7644E1" stroke-width="4" stroke-linecap="round" stroke-linejoin="round"/>
<path d="M23 13.7895H31.2895C32.5109 13.7895 33.6822 13.3043 34.5459 12.4406C35.4095 11.577 35.8947 10.4056 35.8947 9.1842C35.8947 7.96281 35.4095 6.79144 34.5459 5.92778C33.6822 5.06413 32.5109 4.57893 31.2895 4.57893C24.8421 4.57893 23 13.7895 23 13.7895Z" stroke="#7644E1" stroke-width="4" stroke-linecap="round" stroke-linejoin="round"/>
</svg>
