<svg width="25" height="24" viewBox="0 0 25 24" fill="none" xmlns="http://www.w3.org/2000/svg">
<path d="M19.5 12V21H5.5V12" stroke="#1A162E" stroke-width="1.5" stroke-linecap="round" stroke-linejoin="round"/>
<path d="M21.5 8H3.5V12H21.5V8Z" stroke="#1A162E" stroke-width="1.5" stroke-linecap="round" stroke-linejoin="round"/>
<path d="M12.5 21V8" stroke="#1A162E" stroke-width="1.5" stroke-linecap="round" stroke-linejoin="round"/>
<path d="M12.5 8H8.64286C8.07454 8 7.52949 7.73661 7.12763 7.26777C6.72576 6.79893 6.5 6.16304 6.5 5.5C6.5 4.83696 6.72576 4.20107 7.12763 3.73223C7.52949 3.26339 8.07454 3 8.64286 3C11.6429 3 12.5 8 12.5 8Z" stroke="#1A162E" stroke-width="1.5" stroke-linecap="round" stroke-linejoin="round"/>
<path d="M12.5 8H16.3571C16.9255 8 17.4705 7.73661 17.8724 7.26777C18.2742 6.79893 18.5 6.16304 18.5 5.5C18.5 4.83696 18.2742 4.20107 17.8724 3.73223C17.4705 3.26339 16.9255 3 16.3571 3C13.3571 3 12.5 8 12.5 8Z" stroke="#1A162E" stroke-width="1.5" stroke-linecap="round" stroke-linejoin="round"/>
</svg>
